<svg width="31" height="27" viewBox="0 0 31 27" fill="none" xmlns="http://www.w3.org/2000/svg">
<path d="M1 25.4633H29.8268" stroke="#20388C" stroke-width="2" stroke-linecap="round" stroke-linejoin="round"/>
<path d="M8.20585 15.1624H5.32317C4.52714 15.1624 3.88184 15.7389 3.88184 16.4499V24.1752C3.88184 24.8863 4.52714 25.4627 5.32317 25.4627H8.20585C9.00188 25.4627 9.64719 24.8863 9.64719 24.1752V16.4499C9.64719 15.7389 9.00188 15.1624 8.20585 15.1624Z" stroke="#20388C" stroke-width="2" stroke-linejoin="round"/>
<path d="M6.76562 20.3139H7.48629" stroke="#20388C" stroke-width="2" stroke-linecap="square" stroke-linejoin="round"/>
<path d="M25.5022 1H11.0888C10.2928 1 9.64746 1.57645 9.64746 2.28754V24.1758C9.64746 24.8869 10.2928 25.4633 11.0888 25.4633H25.5022C26.2982 25.4633 26.9435 24.8869 26.9435 24.1758V2.28754C26.9435 1.57645 26.2982 1 25.5022 1Z" stroke="#20388C" stroke-width="2" stroke-linejoin="round"/>
<path d="M13.9717 4.86149H16.8544V7.43657H13.9717V4.86149ZM19.737 4.86149H22.6197V7.43657H19.737V4.86149ZM13.9717 9.36789H16.8544V11.943H13.9717V9.36789ZM19.737 9.36789H22.6197V11.943H19.737V9.36789ZM19.737 13.8743H22.6197V16.4494H19.737V13.8743ZM19.737 18.3807H22.6197V20.9558H19.737V18.3807Z" fill="#20388C"/>
</svg>
