<svg width="15" height="14" viewBox="0 0 15 14" fill="none" xmlns="http://www.w3.org/2000/svg">
<path d="M15 6.98161C15 5.68299 14.382 4.71703 12.934 3.75241C12.7463 3.62741 12.4919 3.55722 12.2266 3.55728C11.9614 3.55734 11.707 3.62765 11.5195 3.75274C11.332 3.87783 11.2267 4.04745 11.2268 4.22429C11.2269 4.40113 11.3323 4.5707 11.52 4.6957C12.599 5.41434 13 6.03364 13 6.98161C13.002 7.4632 12.8607 7.94027 12.5841 8.38518C12.3076 8.8301 11.9014 9.234 11.389 9.5735C10.385 10.2421 9.31099 10.5748 7.961 10.6355L9.20699 9.80415C9.29984 9.74226 9.37349 9.66878 9.42373 9.58791C9.47398 9.50704 9.49984 9.42037 9.49984 9.33284C9.49984 9.24531 9.47398 9.15863 9.42373 9.07777C9.37349 8.9969 9.29984 8.92342 9.20699 8.86153C9.11415 8.79963 9.00393 8.75054 8.88262 8.71704C8.76131 8.68354 8.6313 8.6663 8.5 8.6663C8.36869 8.6663 8.23868 8.68354 8.11737 8.71704C7.99607 8.75054 7.88584 8.79963 7.793 8.86153L4.08601 11.3328L7.793 13.804C7.88565 13.8661 7.99581 13.9154 8.11715 13.949C8.23848 13.9827 8.36859 14 8.5 14C8.6314 14 8.76151 13.9827 8.88285 13.949C9.00418 13.9154 9.11434 13.8661 9.20699 13.804C9.29994 13.7421 9.37368 13.6687 9.42399 13.5878C9.4743 13.5069 9.50019 13.4202 9.50019 13.3327C9.50019 13.2451 9.4743 13.1584 9.42399 13.0776C9.37368 12.9967 9.29994 12.9232 9.20699 12.8614L7.87 11.9707C9.79299 11.9161 11.412 11.4427 12.803 10.5168C13.5018 10.0537 14.0558 9.50281 14.4329 8.89598C14.8101 8.28915 15.0028 7.63845 15 6.98161ZM2.00002 6.9996C2.00002 6.02031 2.57202 5.09968 3.61102 4.40705C4.62001 3.73441 5.70301 3.40176 7.068 3.34443L5.79301 4.19439C5.65236 4.28746 5.55642 4.40631 5.51737 4.53583C5.47833 4.66535 5.49795 4.79968 5.57375 4.92175C5.64954 5.04381 5.77808 5.14809 5.94301 5.22133C6.10795 5.29456 6.30183 5.33343 6.5 5.33301C6.63134 5.3331 6.76141 5.31589 6.88274 5.28237C7.00406 5.24885 7.11426 5.19968 7.207 5.13768L10.914 2.66645L7.207 0.195224C7.11416 0.133331 7.00393 0.084234 6.88263 0.0507373C6.76132 0.0172406 6.63131 9.22289e-10 6.5 0C6.3687 -9.22289e-10 6.23869 0.0172405 6.11738 0.0507372C5.99607 0.0842338 5.88585 0.133331 5.79301 0.195224C5.70016 0.257118 5.62651 0.330597 5.57627 0.411465C5.52602 0.492333 5.50016 0.579007 5.50016 0.666538C5.50016 0.754069 5.52602 0.840743 5.57627 0.921611C5.62651 1.00248 5.70016 1.07596 5.79301 1.13785L7.104 2.01181C5.19001 2.06915 3.57902 2.54246 2.19702 3.46442C1.49821 3.92749 0.944188 4.4784 0.567062 5.08523C0.189936 5.69206 -0.00279662 6.34276 3.06603e-05 6.9996C3.06603e-05 8.29822 0.618028 9.26418 2.06602 10.2288C2.15874 10.2909 2.26895 10.3401 2.39032 10.3737C2.51169 10.4073 2.64182 10.4245 2.77323 10.4245C2.90464 10.4244 3.03473 10.407 3.15602 10.3733C3.27732 10.3396 3.38743 10.2903 3.48002 10.2281C3.57299 10.1662 3.64675 10.0927 3.69708 10.0118C3.7474 9.93084 3.7733 9.84409 3.7733 9.75649C3.7733 9.66888 3.7474 9.58213 3.69708 9.50121C3.64675 9.42028 3.57299 9.34675 3.48002 9.28484C2.40102 8.56687 2.00002 7.94756 2.00002 6.9996Z" fill="white"/>
</svg>
