<svg width="23" height="23" viewBox="0 0 23 23" fill="none" xmlns="http://www.w3.org/2000/svg">
<path d="M22.9807 0V2.42105C22.9807 14.0748 16.414 19.3684 8.31482 19.3684H5.99028C6.24937 15.7223 7.39576 13.5155 10.3876 10.8935C11.8591 9.60432 11.7344 8.85984 11.0097 9.28716C6.01839 12.2287 3.53864 16.2041 3.42864 22.5521L3.42498 23H0.980667C0.980667 21.3501 1.12244 19.8526 1.40353 18.4823C1.12244 16.9159 0.980667 14.7902 0.980667 12.1053C0.980667 5.41953 6.45225 0 13.2022 0C15.6465 0 18.0921 1.21053 22.9807 0Z" fill="#0CBF29"/>
<path d="M1.48517 22.5C1.51105 21.0761 1.64838 19.7769 1.89333 18.5828L1.91265 18.4886L1.89567 18.394C1.62213 16.8697 1.48067 14.7775 1.48067 12.1053C1.48067 5.70016 6.72388 0.5 13.2022 0.5C13.7747 0.5 14.3556 0.570906 15.0018 0.665011C15.135 0.684407 15.2711 0.704824 15.4103 0.725694C15.938 0.804831 16.509 0.890461 17.1256 0.951514C18.5689 1.09444 20.277 1.1054 22.4807 0.629218V2.42105C22.4807 8.1547 20.8668 12.2553 18.3233 14.9196C15.7806 17.5831 12.2545 18.8684 8.31482 18.8684H6.53478C6.68833 17.343 7.02199 16.1063 7.60795 14.9773C8.26243 13.7162 9.24879 12.5564 10.7171 11.2696C11.1042 10.9305 11.3977 10.6174 11.607 10.3392C11.8094 10.0702 11.9584 9.80075 12.0114 9.55015C12.038 9.42451 12.0497 9.26005 11.9882 9.09401C11.9187 8.90654 11.7721 8.76445 11.5816 8.70168C11.4128 8.6461 11.2492 8.66482 11.1265 8.69645C10.9988 8.72939 10.8737 8.78688 10.7558 8.8564C10.7558 8.85642 10.7557 8.85643 10.7557 8.85645L11.0097 9.28716L1.48517 22.5ZM1.48517 22.5H2.92951H1.48517Z" stroke="black" stroke-opacity="0.1"/>
</svg>
