<svg width="22" height="23" viewBox="0 0 22 23" fill="none" xmlns="http://www.w3.org/2000/svg">
<path d="M22 0V2.42105C22 14.0748 15.4334 19.3684 7.33415 19.3684H5.00961C5.26871 15.7223 6.41509 13.5155 9.40692 10.8935C10.8784 9.60432 10.7537 8.85984 10.029 9.28716C5.03772 12.2287 2.55797 16.2041 2.44798 22.5521L2.44431 23H0C0 21.3501 0.14177 19.8526 0.422865 18.4823C0.14177 16.9159 0 14.7902 0 12.1053C0 5.41953 5.47159 0 12.2215 0C14.6659 0 17.1114 1.21053 22 0Z" fill="#BB1111"/>
<path d="M0.504501 22.5C0.53038 21.0761 0.667715 19.7769 0.912666 18.5828L0.931984 18.4886L0.915004 18.394C0.64146 16.8697 0.5 14.7775 0.5 12.1053C0.5 5.70017 5.74321 0.5 12.2215 0.5C12.7941 0.5 13.3749 0.570906 14.0211 0.665011C14.1543 0.684407 14.2904 0.704825 14.4296 0.725694C14.9573 0.804831 15.5284 0.890461 16.1449 0.951514C17.5882 1.09444 19.2963 1.1054 21.5 0.629218V2.42105C21.5 8.1547 19.8861 12.2553 17.3426 14.9196C14.7999 17.5831 11.2738 18.8684 7.33415 18.8684H5.55411C5.70766 17.343 6.04133 16.1063 6.62728 14.9773C7.28176 13.7162 8.26813 12.5564 9.73642 11.2696C10.1235 10.9305 10.417 10.6174 10.6263 10.3392C10.8288 10.0702 10.9777 9.80075 11.0307 9.55015C11.0573 9.42451 11.069 9.26005 11.0075 9.09401C10.9381 8.90654 10.7914 8.76445 10.6009 8.70168C10.4322 8.6461 10.2686 8.66482 10.1459 8.69645C10.0181 8.72939 9.89306 8.78688 9.77514 8.8564C9.77511 8.85642 9.77508 8.85643 9.77505 8.85645L10.029 9.28716L0.504501 22.5ZM0.504501 22.5H1.94884H0.504501Z" stroke="black" stroke-opacity="0.1"/>
</svg>
