<svg width="105" height="115" viewBox="0 0 105 115" fill="none" xmlns="http://www.w3.org/2000/svg">
<path d="M47.8947 0H9.57895C4.26263 0 0 4.28048 0 9.61905V86.5714C0 91.91 4.26263 96.1905 9.57895 96.1905H46.9847C44.4463 91.8138 43.1053 86.8119 43.1053 81.7619C43.1053 65.8424 55.9889 52.9048 71.8421 52.9048C73.4705 52.9048 75.051 53.0491 76.6316 53.2895V28.8571L47.8947 0ZM43.1053 33.6667V7.21429L69.4474 33.6667H43.1053Z" fill="#BBB9B9"/>
<path d="M70.974 67.108C68.6155 66.5724 66.282 66.84 64.8511 67.6673C64.6931 67.7585 64.5187 67.8176 64.3378 67.8414C64.1569 67.8651 63.9731 67.853 63.7969 67.8057C63.6207 67.7584 63.4556 67.6769 63.3109 67.5658C63.1662 67.4547 63.0448 67.3162 62.9536 67.1582C62.8625 67.0002 62.8033 66.8257 62.7796 66.6449C62.7558 66.464 62.768 66.2802 62.8152 66.104C62.8625 65.9278 62.944 65.7626 63.0551 65.618C63.1662 65.4733 63.3048 65.3519 63.4628 65.2607C65.669 63.9869 68.767 63.7588 71.5879 64.3981C74.4276 65.0426 77.2898 66.6334 78.8631 69.3585C79.0472 69.6776 79.097 70.0568 79.0015 70.4126C78.906 70.7685 78.6731 71.0718 78.3539 71.2559C78.0348 71.44 77.6556 71.4898 77.2998 71.3943C76.9439 71.2988 76.6406 71.0659 76.4565 70.7468C75.3864 68.8913 73.3153 67.6375 70.9743 67.1066L70.974 67.108Z" fill="#BBB9B9"/>
<path fill-rule="evenodd" clip-rule="evenodd" d="M79.4055 90.3143C82.9078 87.8836 85.4328 84.2877 86.5298 80.168C89.1108 70.5356 83.395 60.6356 73.7626 58.0546C64.1302 55.4736 54.2301 61.1894 51.6491 70.8218C49.0681 80.4542 54.7839 90.3542 64.4164 92.9352C68.7027 94.0838 73.0408 93.5897 76.7654 91.8385L75.4566 94.6626L82.836 107.444L89.8851 103.374L82.5057 90.5928L79.4055 90.3143ZM65.4948 88.9105C72.9042 90.8959 80.5198 86.4991 82.5051 79.0896C84.4905 71.6802 80.0936 64.0646 72.6842 62.0793C65.2747 60.0939 57.6592 64.4907 55.6738 71.9002C53.6885 79.3097 58.0853 86.9252 65.4948 88.9105Z" fill="#BBB9B9"/>
<path d="M84.2242 109.849L91.2733 105.779L92.605 108.086C93.3544 109.384 92.9097 111.043 91.6122 111.791L89.2613 113.149C87.9634 113.898 86.3039 113.453 85.5559 112.156L84.2242 109.849Z" fill="#BBB9B9"/>
</svg>
