<svg width="26" height="20" viewBox="0 0 26 20" fill="none" xmlns="http://www.w3.org/2000/svg">
<path d="M5.71968 0.366749L0.72614 5.3663L0.621145 5.48504C0.434749 5.72567 0.342569 6.02605 0.3619 6.32981C0.381231 6.63357 0.510744 6.91983 0.72614 7.1349L0.844885 7.23864C1.08553 7.42502 1.38591 7.5172 1.68969 7.49787C1.99346 7.47854 2.27974 7.34903 2.49481 7.13365L5.35969 4.26265V18.7489L5.36844 18.8951C5.40398 19.1994 5.55002 19.48 5.77883 19.6837C6.00764 19.8874 6.30329 19.9999 6.60964 20L6.75588 19.9912C7.06015 19.9554 7.34065 19.8091 7.54412 19.58C7.74759 19.351 7.85985 19.0552 7.85959 18.7489V4.2714L10.7257 7.13365L10.8445 7.23864C11.0957 7.43527 11.4127 7.52837 11.7304 7.49888C12.048 7.46939 12.3424 7.31953 12.5532 7.08001C12.764 6.84049 12.8752 6.52945 12.864 6.2106C12.8528 5.89175 12.7201 5.58924 12.4931 5.36505L7.48585 0.365498L7.36836 0.261758C7.12772 0.0753707 6.82733 -0.0168055 6.52355 0.0025246C6.21978 0.0218547 5.93475 0.151363 5.71968 0.366749ZM19.1091 0.0042804L18.9629 0.0130302C18.6588 0.0488485 18.3785 0.195005 18.175 0.423778C17.9716 0.652551 17.8592 0.94803 17.8592 1.25417V15.7279L14.993 12.8656L14.8743 12.7606C14.6229 12.5663 14.307 12.475 13.9907 12.5052C13.6745 12.5355 13.3816 12.685 13.1716 12.9235C12.9616 13.1619 12.8504 13.4714 12.8604 13.7889C12.8704 14.1064 13.001 14.4083 13.2256 14.633L18.2304 19.6325L18.3479 19.7375C18.5885 19.9239 18.8889 20.0161 19.1927 19.9968C19.4965 19.9774 19.7827 19.8479 19.9978 19.6325L24.9926 14.633L25.0976 14.5142C25.284 14.2736 25.3762 13.9732 25.3569 13.6695C25.3375 13.3657 25.208 13.0794 24.9926 12.8644L24.8739 12.7606C24.6332 12.5743 24.3328 12.4821 24.0291 12.5014C23.7253 12.5207 23.439 12.6502 23.2239 12.8656L20.3591 15.7329V1.25417L20.3503 1.10918C20.3148 0.804919 20.1687 0.5243 19.9399 0.320613C19.7111 0.116927 19.4155 0.00435674 19.1091 0.0042804Z" fill="#234568"/>
</svg>
