<svg width="41" height="33" viewBox="0 0 41 33" fill="none" xmlns="http://www.w3.org/2000/svg">
<rect x="-1" y="1" width="38" height="31" rx="3" transform="matrix(-1 0 0 1 38.3604 0)" fill="#234568" stroke="#234568" stroke-width="2"/>
<path d="M10.7356 27C9.55061 27 8.41283 26.5832 7.50604 25.8117C5.49546 24.0973 5.49546 21.3088 7.50558 19.5955L23.1831 5.44575C25.6292 3.36342 29.376 3.55053 32.1104 5.87752C33.3356 6.92072 34.0231 8.42465 33.9973 10.0054C33.9715 11.5695 33.2526 13.0664 32.0239 14.1126L20.1753 24.8335C19.8455 25.1338 19.2925 25.1476 18.9405 24.8658C18.5893 24.5837 18.5723 24.1129 18.9034 23.8137L30.7699 13.0764C31.698 12.286 32.2305 11.1648 32.2501 9.98462C32.2698 8.8037 31.7679 7.6903 30.8751 6.92961C29.1978 5.50105 26.4669 4.75298 24.4367 6.48263L8.75957 20.6324C7.41161 21.781 7.41205 23.6258 8.74209 24.7592C9.36581 25.2897 10.1062 25.5481 10.8946 25.5076C11.6747 25.4671 12.4767 25.1271 13.1528 24.5509L25.6269 13.2664C26.079 12.8814 26.9875 11.9377 26.0628 11.1499C25.5391 10.7041 25.1713 10.7315 25.0503 10.7401C24.7048 10.7661 24.3012 10.9691 23.8823 11.3263L14.4934 19.8134C14.1619 20.113 13.6084 20.1275 13.2585 19.8449C12.9069 19.5635 12.8907 19.092 13.2214 18.7936L22.6275 10.2905C23.367 9.65899 24.123 9.3167 24.8927 9.25804C25.4933 9.21272 26.3865 9.32152 27.2977 10.0982C28.65 11.2498 28.4819 12.939 26.8806 14.3029L14.4065 25.5867C13.4106 26.4361 12.2081 26.9295 11.0016 26.9926C10.913 26.9977 10.8243 27 10.7356 27L10.7356 27Z" fill="#FBFBFB"/>
</svg>
