<svg width="27" height="21" viewBox="0 0 27 21" fill="none" xmlns="http://www.w3.org/2000/svg">
<path d="M10.2766 10.4814C9.59582 11.4878 9.21606 12.6487 9.21606 13.8714C9.21606 17.769 13.1526 21.0001 18.108 21.0001C23.0634 21.0001 26.9999 17.769 26.9999 13.8714C26.9999 12.6487 26.6156 11.4878 25.9394 10.4814H10.2766ZM18.0941 11.5364C19.1269 11.5364 19.9883 12.3309 19.9883 13.3153C19.9883 14.0568 19.4974 14.6924 18.8258 14.9617L20.3403 19.2963H15.8758L17.3624 14.9617C16.6909 14.6924 16.2277 14.0524 16.2277 13.3153C16.2277 12.3309 17.0614 11.5364 18.0941 11.5364Z" fill="#12722D"/>
<path d="M6.80789 0C3.05101 0 -1.90735e-06 2.98481 -1.90735e-06 6.47202H2.30335C2.30335 4.15664 4.32343 2.31582 6.80789 2.31582C9.297 2.31582 11.3124 4.2406 11.3124 6.61342V9.66672H13.6158V6.47202C13.6158 2.89379 10.5741 0 6.80789 0Z" fill="#12722D"/>
</svg>
