<svg width="18" height="21" viewBox="0 0 18 21" fill="none" xmlns="http://www.w3.org/2000/svg">
<path d="M9.22468 0C5.51993 0 2.52242 2.89118 2.52242 6.46396V9.65523H4.78939V6.60467C4.78939 4.23562 6.77642 2.31377 9.22468 2.31377C11.6731 2.31377 13.6601 4.28926 13.6601 6.60463V9.65523H15.927V6.464C15.927 2.98244 12.9231 0 9.22473 0H9.22468ZM1.49398 10.4803C0.826148 11.4882 0.449768 12.6503 0.449768 13.8702C0.449768 17.7713 4.33379 21.0006 9.22482 21.0006C14.1158 21.0006 17.9998 17.7713 17.9998 13.8702C17.9998 12.6501 17.6222 11.4883 16.9541 10.4803H1.49389H1.49398ZM9.21188 11.5372C10.2331 11.5372 11.0803 12.3292 11.0803 13.3156C11.0803 14.0554 10.5958 14.6944 9.93182 14.9658L11.4275 19.2981H7.02207L8.49052 14.9658C7.82653 14.6945 7.36915 14.0554 7.36915 13.3157C7.36915 12.3295 8.19066 11.5373 9.21184 11.5373L9.21188 11.5372Z" fill="#EB1111"/>
</svg>
