<svg width="168" height="158" viewBox="0 0 168 158" fill="none" xmlns="http://www.w3.org/2000/svg">
<path fill-rule="evenodd" clip-rule="evenodd" d="M69.8745 5.618C59.9905 21.926 60.6625 34.845 71.9865 46.25C75.1275 49.413 78.2055 52 78.8275 52C81.3765 52 83.1225 44.746 82.5085 36.708C81.8455 28.042 82.9965 27.246 84.8735 35.072C86.5355 42 85.7435 49.385 82.6025 56.246L79.9715 61.991L82.1165 63.139C83.3795 63.815 84.3905 63.899 84.5755 63.343C84.7485 62.824 88.0205 57.79 91.8465 52.156C99.5305 40.841 101.354 35.905 100.374 29.071C98.9865 19.383 93.7975 12.549 84.0695 7.597C81.4775 6.278 78.2655 4.028 76.9325 2.599C75.5985 1.17 74.2315 0 73.8935 0C73.5555 0 71.7465 2.528 69.8745 5.618ZM32.9925 33.751L23.6285 34.078L24.3505 41.789C25.2785 51.696 27.8805 58.553 32.5255 63.336C37.6245 68.585 43.1675 71.175 50.5775 71.77C56.5075 72.246 56.8565 72.153 56.8565 70.105C56.8565 66.455 53.9475 60.693 50.1225 56.768C45.7505 52.282 46.4315 50.635 51.0645 54.49C57.6045 59.931 61.8385 68.276 61.8505 75.75C61.8555 78.549 62.2035 79 64.3565 79H66.8565L66.8465 65.75C66.8385 53.909 66.5855 51.968 64.4735 47.5C61.7275 41.692 57.7985 37.694 52.8565 35.68C48.1415 33.758 44.0765 33.364 32.9925 33.751ZM119.773 33.933C112.584 35.333 106.303 40.582 102.94 48C101.22 51.793 100.897 54.581 100.879 65.75L100.856 79H103.356C105.629 79 105.858 78.614 105.867 74.75C105.872 72.393 106.935 68.227 108.253 65.397C111.144 59.187 120.856 49.348 120.856 52.629C120.856 52.975 119.237 55.049 117.259 57.239C113.392 61.519 110.856 66.615 110.856 70.105C110.856 72.153 111.205 72.246 117.135 71.77C124.545 71.175 130.088 68.585 135.187 63.336C139.826 58.56 142.402 51.72 143.316 41.75L144.027 34H135.023C130.071 34 125.42 33.828 124.688 33.618C123.955 33.408 121.743 33.55 119.773 33.933ZM17.3565 66.433C15.1565 67.147 10.7155 69.347 7.4885 71.322C4.2605 73.297 1.1105 75.084 0.488496 75.295C-0.297504 75.56 -0.140503 76.721 0.999497 79.089C6.3835 90.271 14.4035 96.017 24.5735 95.978C30.3655 95.956 38.8565 93.079 38.8565 91.138C38.8565 89.592 32.7195 84.845 28.0235 82.758C25.6405 81.699 23.8455 80.677 24.0365 80.487C24.2265 80.297 26.5035 80.594 29.0955 81.147C34.1145 82.217 43.1735 89.273 44.3705 93.045C45.0245 95.105 47.3215 95.674 48.3395 94.028C49.2905 92.489 41.1075 76.284 37.1875 71.945C34.7325 69.227 32.0665 67.546 28.5635 66.506C22.6285 64.743 22.5615 64.743 17.3565 66.433ZM138.971 66.501C136.56 67.253 133.128 69.282 131.346 71.01C127.7 74.544 118.367 92.4 119.342 93.977C120.162 95.305 122.856 95.305 122.856 93.978C122.856 92.182 130.819 84.244 134.146 82.723C138.192 80.873 143.856 79.79 143.856 80.867C143.856 81.316 142.117 82.204 139.991 82.841C135.637 84.146 131.356 87.197 129.8 90.104C127.39 94.607 144.275 97.941 152.367 94.56C154.263 93.767 157.756 91.122 160.129 88.68C164.707 83.97 169.039 75.894 167.299 75.314C166.74 75.128 163.235 73.195 159.511 71.019C153.365 67.427 146.957 64.913 144.356 65.072C143.806 65.106 141.383 65.749 138.971 66.501ZM83.5835 68.269C83.2975 69.015 82.0595 77.922 80.8325 88.063L78.6005 106.5L69.9415 98C62.1725 90.375 50.8565 82.509 50.8565 84.735C50.8565 85.207 52.6995 87.373 54.9525 89.547C60.9285 95.313 67.1055 103.587 70.9685 111L74.3565 117.5L74.2835 137.75L74.2115 158H84.3045H94.3985L93.1185 141.25C91.8745 124.966 91.8995 124.333 93.9835 118.5C96.4825 111.506 102.119 101.263 108.468 92.181C110.935 88.652 112.781 85.592 112.57 85.381C111.91 84.72 93.2605 100.734 91.4205 103.542C90.4585 105.012 89.3165 105.828 88.8845 105.357C88.4525 104.886 87.3095 96.175 86.3455 86C85.3805 75.825 84.4815 67.368 84.3475 67.207C84.2135 67.046 83.8695 67.524 83.5835 68.269ZM39.5415 107.017C35.2025 108.319 30.3355 112.49 28.2485 116.694C26.7445 119.722 26.3575 122.722 26.3575 131.374L26.3565 142.249L33.4755 141.711C47.6065 140.645 55.6875 133.202 57.3745 119.699L58.0995 113.901L55.2275 114.591C51.3225 115.529 47.4865 117.536 45.8655 119.489C45.1265 120.38 43.6625 121.569 42.6135 122.13C40.9205 123.036 40.8255 122.927 41.7685 121.164C44.1215 116.768 51.1055 112.027 57.0335 110.803C61.5285 109.874 62.8565 109.189 62.8565 107.8C62.8565 106.178 61.8415 106.009 52.6065 106.086C46.9685 106.133 41.0895 106.552 39.5415 107.017ZM104.856 107.916C104.856 109.409 105.494 110.002 107.106 110.006C111.725 110.017 117.119 112.243 120.979 115.73C127.149 121.304 127.792 123.786 121.849 119.089C119.004 116.84 116.155 114.994 115.517 114.986C114.879 114.979 113.276 114.684 111.957 114.331C109.588 113.697 109.567 113.756 110.255 118.943C111.257 126.5 113.551 131.525 117.637 135.112C122.451 139.34 126.85 141.032 134.74 141.693L141.356 142.247V130.874C141.356 117.664 140.134 114.55 132.976 109.514C128.883 106.634 128.161 106.485 116.774 106.166C105.256 105.844 104.856 105.902 104.856 107.916Z" fill="#EB1111"/>
</svg>
