<svg width="25" height="22" viewBox="0 0 25 22" fill="none" xmlns="http://www.w3.org/2000/svg">
<path d="M12.2367 0.285713C5.70453 0.285713 0.411133 5.147 0.411133 11.1429C0.411133 17.1387 5.70453 22 12.2367 22C18.7688 22 24.0622 17.1387 24.0622 11.1429C24.0622 5.147 18.7688 0.285713 12.2367 0.285713ZM17.7163 14.2548C17.9935 14.5093 18.1492 14.8544 18.1492 15.2143C18.1492 15.5742 17.9935 15.9193 17.7163 16.1738C17.4391 16.4283 17.0632 16.5712 16.6712 16.5712C16.2792 16.5712 15.9033 16.4283 15.6261 16.1738L12.2367 13.0619L8.84716 16.1738C8.7102 16.3002 8.54737 16.4006 8.36801 16.4691C8.18866 16.5376 7.99633 16.5728 7.80208 16.5728C7.60784 16.5728 7.41551 16.5376 7.23615 16.4691C7.0568 16.4006 6.89396 16.3002 6.757 16.1738C6.61961 16.0479 6.51061 15.8983 6.43624 15.7337C6.36188 15.569 6.3236 15.3925 6.3236 15.2143C6.3236 15.036 6.36188 14.8596 6.43624 14.6949C6.51061 14.5303 6.61961 14.3807 6.757 14.2548L10.1465 11.1429L6.757 8.03093C6.47983 7.77645 6.32412 7.43131 6.32412 7.07143C6.32412 6.71154 6.47983 6.3664 6.757 6.11193C7.03418 5.85745 7.4101 5.71449 7.80208 5.71449C8.19406 5.71449 8.56999 5.85745 8.84716 6.11193L12.2367 9.22386L15.6261 6.11193C15.9033 5.85745 16.2792 5.71449 16.6712 5.71449C17.0632 5.71449 17.4391 5.85745 17.7163 6.11193C17.9935 6.3664 18.1492 6.71154 18.1492 7.07143C18.1492 7.43131 17.9935 7.77645 17.7163 8.03093L14.3268 11.1429L17.7163 14.2548Z" fill="#EE3E3E"/>
</svg>
