<svg width="13" height="14" viewBox="0 0 13 14" fill="none" xmlns="http://www.w3.org/2000/svg">
<path d="M6.5 7C7.19223 7 7.86892 6.79473 8.4445 6.41014C9.02007 6.02556 9.46867 5.47893 9.73358 4.83939C9.99849 4.19985 10.0678 3.49612 9.93275 2.81719C9.7977 2.13825 9.46436 1.51461 8.97487 1.02513C8.48539 0.535644 7.86175 0.202301 7.18282 0.0672531C6.50388 -0.0677952 5.80015 0.00151649 5.16061 0.266423C4.52107 0.53133 3.97444 0.979934 3.58986 1.55551C3.20527 2.13108 3 2.80777 3 3.5C3 4.42826 3.36875 5.3185 4.02513 5.97487C4.6815 6.63125 5.57174 7 6.5 7ZM6.5 8C4.33063 8 0 9.34 0 12V14H13V12C13 9.34 8.66937 8 6.5 8Z" fill="white"/>
</svg>
