<svg width="18" height="21" viewBox="0 0 18 21" fill="none" xmlns="http://www.w3.org/2000/svg">
<path d="M15.9249 6.46522C15.9249 2.98167 12.9222 0 9.22477 0C5.51825 0 2.52469 2.89075 2.52469 6.46522V9.65656H4.79157V6.60647C4.79157 4.23614 6.77508 2.31339 9.22477 2.31339C11.6699 2.31339 13.658 4.15227 13.658 6.46522H15.9249ZM1.49637 10.482C0.824534 11.4884 0.449768 12.6493 0.449768 13.872C0.449768 17.7695 4.33454 21.0006 9.22477 21.0006C14.115 21.0006 17.9998 17.7695 17.9998 13.872C17.9998 12.6493 17.6204 11.4884 16.9532 10.482H1.49637ZM9.21106 11.5369C10.2302 11.5369 11.0803 12.3315 11.0803 13.3158C11.0803 14.0573 10.5959 14.693 9.93317 14.9622L11.4277 19.2968H7.02188L8.48895 14.9622C7.82626 14.693 7.36922 14.0529 7.36922 13.3158C7.36922 12.3315 8.19188 11.5369 9.21106 11.5369Z" fill="#FFA500"/>
</svg>
