<svg width="35" height="28" viewBox="0 0 35 28" fill="none" xmlns="http://www.w3.org/2000/svg">
<path d="M9.32954 20.7151L9.16301 20.8732C8.87859 21.1436 8.71846 21.5099 8.71765 21.8921V22.2783C8.71765 22.5836 8.97712 22.83 9.29856 22.83C9.61999 22.83 9.87946 22.5836 9.87946 22.2783V20.9321C9.87946 20.6599 9.53092 20.5238 9.32954 20.7151ZM4.97937 22.096L6.09972 23.2456C6.29722 23.3854 6.19266 23.6797 5.94868 23.6797H5.01924C4.92064 23.6797 4.82607 23.6425 4.75635 23.5762C4.68663 23.51 4.64746 23.4202 4.64746 23.3266V22.1972C4.64746 22.0795 4.88256 22.0261 4.97937 22.096ZM8.55887 23.3155C8.55887 23.4121 8.51848 23.5047 8.44658 23.573C8.37468 23.6413 8.27716 23.6797 8.17548 23.6797C8.07379 23.6797 7.97628 23.6413 7.90438 23.573C7.83247 23.5047 7.79208 23.4121 7.79208 23.3155C7.79208 23.219 7.83247 23.1263 7.90438 23.058C7.97628 22.9898 8.07379 22.9514 8.17548 22.9514C8.27716 22.9514 8.37468 22.9898 8.44658 23.058C8.51848 23.1263 8.55887 23.219 8.55887 23.3155Z" fill="#138934"/>
<path d="M6.09972 23.2456L4.97937 22.096C4.88256 22.0261 4.64746 22.0795 4.64746 22.1972V23.3266C4.64746 23.4202 4.68663 23.51 4.75635 23.5762C4.82607 23.6425 4.92064 23.6797 5.01924 23.6797H5.94868C6.19266 23.6797 6.29722 23.3854 6.09972 23.2456Z" fill="#138934"/>
<path d="M2.7558 17.3843C2.7215 17.3186 2.70543 17.2457 2.70911 17.1725C2.71279 17.0993 2.7361 17.0281 2.77683 16.9659C2.81756 16.9036 2.87436 16.8523 2.94184 16.8167C3.00933 16.7811 3.08526 16.7625 3.16243 16.7627C3.3278 16.7627 3.49084 16.8498 3.56829 17.0017L3.82583 17.4872H3.98887V17.4836H5.80515V17.8514C5.80515 18.3369 5.50115 18.7573 5.0647 18.9497C5.35144 19.1991 5.72616 19.3374 6.11497 19.3374H9.4145C10.6321 19.3374 11.6181 20.2753 11.6181 21.4339V25.9581C11.4133 25.9581 11.2169 25.8811 11.0717 25.7439C10.9266 25.6067 10.8445 25.4206 10.8435 25.2261V26.9695C10.8435 27.2241 10.6274 27.4293 10.3594 27.4293H9.77853C9.51054 27.4293 9.29444 27.2241 9.29444 26.9695V25.8779L8.99625 25.8076C8.89981 25.7851 8.80571 25.7543 8.71509 25.7157L8.23372 27.3149C8.22734 27.3365 8.21364 27.3556 8.19474 27.3691C8.17585 27.3826 8.1528 27.3898 8.12915 27.3896H7.4828C7.46576 27.3899 7.44889 27.3863 7.43359 27.3792C7.41828 27.372 7.40498 27.3616 7.39477 27.3486C7.38456 27.3356 7.37774 27.3206 7.37487 27.3046C7.37199 27.2886 7.37315 27.2723 7.37824 27.2568L7.93513 25.4063H7.6989C7.35036 25.4063 7.0204 25.3173 6.77255 25.1301C6.6707 25.0538 6.58446 24.9605 6.51812 24.8546H6.19978L6.53399 25.9603C6.56885 26.0809 6.56885 26.2056 6.53399 26.3218L6.22805 27.3149C6.22166 27.3366 6.2079 27.3557 6.18893 27.3692C6.16995 27.3827 6.14681 27.3899 6.1231 27.3896H5.47559C5.45853 27.3898 5.44166 27.3861 5.42635 27.379C5.41105 27.3718 5.39774 27.3613 5.38751 27.3483C5.37729 27.3354 5.37043 27.3203 5.3675 27.3043C5.36456 27.2883 5.36564 27.2719 5.37064 27.2564L5.70292 26.1806C5.71168 26.1578 5.71168 26.1328 5.70292 26.11L5.41711 25.1628C5.40961 25.3636 5.3454 25.5588 5.23121 25.728C5.11702 25.8971 4.95705 26.034 4.76805 26.1243L4.64335 26.1843V26.9695C4.64335 27.2241 4.42725 27.4293 4.15926 27.4293H3.57836C3.31037 27.4293 3.09428 27.2241 3.09428 26.9695V24.7391C2.89146 24.6515 2.71413 24.5183 2.57757 24.351C2.44102 24.1838 2.34934 23.9875 2.31044 23.7791L2.31006 23.7776L2.04671 22.3443L1.8221 21.1691H1.38642C1.01872 21.1691 0.666078 21.0304 0.406073 20.7834C0.146069 20.5365 0 20.2015 0 19.8523C0 19.5294 0.170398 19.2344 0.44807 19.0604L2.45993 17.7852C2.5861 17.7043 2.72245 17.6388 2.86579 17.5902L2.7558 17.3843ZM3.10977 21.1691H2.60942L2.68106 21.5443H3.05168C3.33825 21.5443 3.61322 21.6546 3.81459 21.8495C4.0547 22.0813 4.05857 22.4564 3.81847 22.6918L3.58611 22.9236C3.51949 22.9901 3.48209 23.0782 3.48154 23.17V23.3245C3.48154 23.5588 3.40022 23.7824 3.25034 23.9645C3.33245 24.0388 3.43662 24.0903 3.55164 24.1105L3.86881 24.1657V25.7318L4.41796 25.4681C4.55815 25.4004 4.64335 25.2677 4.64335 25.1268V24.119H7.50681C7.6501 24.119 7.78177 24.0723 7.89524 23.991C7.94052 23.9585 7.99276 23.9358 8.04827 23.9246C8.10377 23.9134 8.16119 23.914 8.21646 23.9262C8.27174 23.9384 8.32351 23.962 8.36811 23.9953C8.41272 24.0286 8.44907 24.0708 8.4746 24.119H8.48738L8.49164 24.1558C8.5078 24.1969 8.51607 24.2405 8.51603 24.2845C8.51603 24.6678 8.79022 25.0017 9.18214 25.0937H9.18252L10.069 25.3026V23.2918L10.2433 23.1829C10.3571 23.1115 10.4582 23.0251 10.5492 22.9239L10.8435 22.5958V21.4339C10.8435 20.6799 10.203 20.073 9.4145 20.073H8.91531L8.80261 20.1981C8.6206 20.4004 8.51991 20.6578 8.51991 20.9263V21.6546C8.51991 22.2026 8.05131 22.6477 7.46654 22.6514C7.2936 22.6517 7.12328 22.6112 6.97083 22.5337L5.70834 21.8937C5.50346 21.7889 5.33228 21.6334 5.21295 21.4436C5.09363 21.2539 5.03062 21.037 5.03062 20.816V19.8188C4.93614 19.7716 4.84517 19.7183 4.75837 19.6592C4.74283 20.0646 4.56233 20.4485 4.25486 20.7301C3.94739 21.0117 3.53691 21.1691 3.10977 21.1691ZM7.50526 24.8546H7.03047C7.19313 24.9708 7.42549 25.0385 7.6989 25.0385H7.94443C7.9033 24.9672 7.86808 24.8929 7.83909 24.8163C7.72985 24.8418 7.61776 24.8547 7.50526 24.8546ZM3.48929 18.2229C3.27474 18.2229 3.06794 18.2825 2.8929 18.395L2.89096 18.3965L1.62846 19.1965C1.74581 19.3168 1.82791 19.4904 1.82791 19.7052H1.88213C1.89954 19.5707 1.95055 19.4421 2.03092 19.3301C2.11129 19.2181 2.21868 19.126 2.34414 19.0615L3.72475 18.2229H3.48929ZM1.20053 20.2275C1.0921 20.2275 1.0069 20.1466 1.0069 20.0436V19.8376C1.0069 19.7346 1.0921 19.6537 1.20053 19.6537C1.30897 19.6537 1.39417 19.7346 1.39417 19.8376V20.0399C1.39417 20.1429 1.30897 20.2275 1.20053 20.2275ZM2.32361 19.6794C2.32361 19.7787 2.40881 19.8633 2.51725 19.8633C2.62568 19.8633 2.71088 19.7787 2.71088 19.6794V19.4293C2.71088 19.3263 2.62568 19.2454 2.51725 19.2454C2.40881 19.2454 2.32361 19.3263 2.32361 19.4293V19.6794Z" fill="#138934"/>
<path d="M19.917 0L4.97949 7.92381V27.4286H14.9378L19.751 22.8571L24.8962 27.4286H34.8545V7.92381L19.917 0ZM13.1121 25.9048V16.7619L18.0913 21.3333L13.1121 25.9048ZM14.7719 15.2381H24.7302L19.751 19.8095L14.7719 15.2381ZM26.3899 25.9048L21.4107 21.3333L26.3899 16.7619V25.9048ZM24.8962 12.1905H14.6059V9.14286H24.8962V12.1905Z" fill="#138934"/>
<path d="M9.51899 20.5335L9.35247 20.6917C9.06804 20.962 8.90791 21.3284 8.90711 21.7105V22.0967C8.90711 22.402 9.16658 22.6485 9.48801 22.6485C9.80944 22.6485 10.0689 22.402 10.0689 22.0967V20.7505C10.0689 20.4783 9.72037 20.3423 9.51899 20.5335ZM5.07315 22.196L6.28917 23.0641C6.48668 23.2039 6.38212 23.4981 6.13814 23.4981H5.20869C5.11009 23.4981 5.01553 23.4609 4.94581 23.3947C4.87608 23.3285 4.83691 23.2387 4.83691 23.145V22.3101C4.83691 22.1924 4.97633 22.1262 5.07315 22.196ZM8.74833 23.134C8.74833 23.2306 8.70793 23.3232 8.63603 23.3915C8.56413 23.4598 8.46661 23.4981 8.36493 23.4981C8.26325 23.4981 8.16573 23.4598 8.09383 23.3915C8.02193 23.3232 7.98153 23.2306 7.98153 23.134C7.98153 23.0374 8.02193 22.9448 8.09383 22.8765C8.16573 22.8082 8.26325 22.7698 8.36493 22.7698C8.46661 22.7698 8.56413 22.8082 8.63603 22.8765C8.70793 22.9448 8.74833 23.0374 8.74833 23.134Z" fill="#D3DADD"/>
<path d="M2.7558 17.3843C2.7215 17.3186 2.70543 17.2457 2.70911 17.1725C2.71279 17.0993 2.7361 17.0281 2.77683 16.9659C2.81756 16.9036 2.87436 16.8523 2.94184 16.8167C3.00932 16.7811 3.08526 16.7625 3.16243 16.7627C3.3278 16.7627 3.49084 16.8498 3.56829 17.0017L3.82583 17.4872H3.98887V17.4836H5.80515V17.8514C5.80515 18.3369 5.50115 18.7573 5.0647 18.9497C5.35144 19.1991 5.72616 19.3374 6.11497 19.3374H9.4145C10.6321 19.3374 11.6181 20.2753 11.6181 21.4339V25.9581C11.4133 25.9581 11.2169 25.8811 11.0717 25.7439C10.9266 25.6067 10.8445 25.4206 10.8435 25.2261V26.9695C10.8435 27.2241 10.6274 27.4293 10.3594 27.4293H9.77853C9.51054 27.4293 9.29444 27.2241 9.29444 26.9695V25.8779L8.99625 25.8076C8.89981 25.7851 8.80571 25.7543 8.71509 25.7157L8.23372 27.3149C8.22734 27.3365 8.21364 27.3556 8.19474 27.3691C8.17585 27.3826 8.1528 27.3898 8.12915 27.3896H7.4828C7.46576 27.3899 7.44889 27.3863 7.43359 27.3792C7.41828 27.372 7.40498 27.3616 7.39477 27.3486C7.38456 27.3356 7.37774 27.3206 7.37487 27.3046C7.37199 27.2886 7.37315 27.2723 7.37824 27.2568L7.93513 25.4063H7.6989C7.35036 25.4063 7.0204 25.3173 6.77255 25.1301C6.6707 25.0538 6.58446 24.9605 6.51812 24.8546H6.19978L6.53399 25.9603C6.56885 26.0809 6.56885 26.2056 6.53399 26.3218L6.22805 27.3149C6.22166 27.3366 6.2079 27.3557 6.18893 27.3692C6.16995 27.3827 6.14681 27.3899 6.1231 27.3896H5.47559C5.45853 27.3898 5.44166 27.3861 5.42635 27.379C5.41105 27.3718 5.39774 27.3613 5.38751 27.3483C5.37729 27.3354 5.37043 27.3203 5.3675 27.3043C5.36456 27.2883 5.36564 27.2719 5.37064 27.2564L5.70292 26.1806C5.71168 26.1578 5.71168 26.1328 5.70292 26.11L5.41711 25.1628C5.40961 25.3636 5.3454 25.5588 5.23121 25.728C5.11702 25.8971 4.95705 26.034 4.76805 26.1243L4.64335 26.1843V26.9695C4.64335 27.2241 4.42725 27.4293 4.15926 27.4293H3.57836C3.31037 27.4293 3.09428 27.2241 3.09428 26.9695V24.7391C2.89146 24.6515 2.71413 24.5183 2.57757 24.351C2.44102 24.1838 2.34934 23.9875 2.31044 23.7791L2.31006 23.7776L2.04671 22.3443L1.8221 21.1691H1.38642C1.01872 21.1691 0.666078 21.0304 0.406073 20.7834C0.146069 20.5365 0 20.2015 0 19.8523C0 19.5294 0.170398 19.2344 0.44807 19.0604L2.45993 17.7852C2.5861 17.7043 2.72245 17.6388 2.86579 17.5902L2.7558 17.3843ZM3.10977 21.1691H2.60942L2.68106 21.5443H3.05168C3.33825 21.5443 3.61322 21.6546 3.8146 21.8495C4.0547 22.0813 4.05857 22.4564 3.81847 22.6918L3.58611 22.9236C3.51949 22.9901 3.48209 23.0782 3.48154 23.17V23.3245C3.48154 23.5588 3.40022 23.7824 3.25034 23.9645C3.33245 24.0388 3.43662 24.0903 3.55164 24.1105L3.86881 24.1657V25.7318L4.41796 25.4681C4.55815 25.4004 4.64335 25.2677 4.64335 25.1268V24.119H7.50681C7.6501 24.119 7.78177 24.0723 7.89524 23.991C7.94052 23.9585 7.99276 23.9358 8.04827 23.9246C8.10377 23.9134 8.16119 23.914 8.21647 23.9262C8.27174 23.9384 8.32351 23.962 8.36811 23.9953C8.41272 24.0286 8.44907 24.0708 8.4746 24.119H8.48738L8.49164 24.1558C8.5078 24.1969 8.51607 24.2405 8.51603 24.2845C8.51603 24.6678 8.79022 25.0017 9.18214 25.0937H9.18252L10.069 25.3026V23.2918L10.2433 23.1829C10.3571 23.1115 10.4582 23.0251 10.5492 22.9239L10.8435 22.5958V21.4339C10.8435 20.6799 10.203 20.073 9.4145 20.073H8.91531L8.80261 20.1981C8.6206 20.4004 8.51991 20.6578 8.51991 20.9263V21.6546C8.51991 22.2026 8.05131 22.6477 7.46654 22.6514C7.2936 22.6517 7.12328 22.6112 6.97083 22.5337L5.70834 21.8937C5.50346 21.7889 5.33228 21.6334 5.21295 21.4436C5.09363 21.2539 5.03063 21.037 5.03062 20.816V19.8188C4.93614 19.7716 4.84517 19.7183 4.75837 19.6592C4.74283 20.0646 4.56233 20.4485 4.25486 20.7301C3.94739 21.0117 3.53691 21.1691 3.10977 21.1691ZM7.50526 24.8546H7.03047C7.19313 24.9708 7.42549 25.0385 7.6989 25.0385H7.94443C7.9033 24.9672 7.86808 24.8929 7.83909 24.8164C7.72985 24.8418 7.61776 24.8547 7.50526 24.8546ZM3.48929 18.2229C3.27474 18.2229 3.06794 18.2825 2.8929 18.395L2.89096 18.3965L1.62846 19.1965C1.74581 19.3168 1.82791 19.4904 1.82791 19.7052H1.88213C1.89954 19.5707 1.95055 19.4421 2.03092 19.3301C2.11129 19.2181 2.21868 19.126 2.34414 19.0615L3.72475 18.2229H3.48929ZM1.20053 20.2275C1.0921 20.2275 1.0069 20.1466 1.0069 20.0436V19.8376C1.0069 19.7346 1.0921 19.6537 1.20053 19.6537C1.30897 19.6537 1.39417 19.7346 1.39417 19.8376V20.0399C1.39417 20.1429 1.30897 20.2275 1.20053 20.2275ZM2.32361 19.6794C2.32361 19.7787 2.40881 19.8633 2.51725 19.8633C2.62568 19.8633 2.71088 19.7787 2.71088 19.6794V19.4293C2.71088 19.3263 2.62568 19.2454 2.51725 19.2454C2.40881 19.2454 2.32361 19.3263 2.32361 19.4293V19.6794Z" fill="#F2F2F2"/>
<path fill-rule="evenodd" clip-rule="evenodd" d="M4.97723 17.4756H4.36961H3.78999L3.64508 17.2003C3.5654 17.049 3.45351 16.8887 3.39647 16.8443C3.19628 16.6883 2.84527 16.7637 2.73038 16.9875C2.65657 17.1313 2.66134 17.2585 2.74722 17.4333L2.81805 17.5776L2.67007 17.6473C2.39372 17.7776 0.382679 19.0742 0.246577 19.2098C0.0603634 19.3954 -0.0139972 19.6192 0.00214426 19.9455C0.0187626 20.2808 0.169648 20.5812 0.437816 20.8131C0.722822 21.0595 0.964394 21.1465 1.41558 21.165L1.79109 21.1805L1.82921 21.3541C1.85015 21.4496 1.96645 22.068 2.08758 22.7284C2.24716 23.5984 2.3322 23.9783 2.39629 24.1077C2.49508 24.3071 2.73041 24.5599 2.91589 24.6659L3.03809 24.7357L3.04902 25.9123C3.06102 27.2019 3.06465 27.2241 3.28737 27.3637C3.37416 27.418 3.4585 27.428 3.83034 27.428C4.51833 27.428 4.59141 27.3532 4.61247 26.6274L4.62586 26.166L4.76005 26.1027C4.83383 26.0679 4.90624 26.0341 4.92099 26.0275C4.9357 26.0209 4.96978 26.0275 4.96978 26.0275C4.96978 26.0275 4.96978 26.0275 4.96978 25.4443C4.97015 24.3346 4.96978 24.1218 4.96978 24.1218H4.76453H4.58239V24.6937C4.58239 25.3754 4.58242 25.3753 4.13897 25.5814L3.85008 25.7157L3.84021 24.947L3.83034 24.1783L3.73863 24.1529C3.68819 24.1389 3.58914 24.1182 3.51852 24.1069C3.4479 24.0957 3.35333 24.0601 3.30839 24.0278L3.22665 23.9692L3.3217 23.7922C3.3859 23.6726 3.42204 23.5406 3.43308 23.3853C3.45751 23.0421 3.46624 23.0215 3.68386 22.7961C3.90393 22.5681 3.97826 22.3927 3.94678 22.1755C3.91938 21.9867 3.75349 21.7894 3.52013 21.6682C3.3465 21.5779 3.27559 21.5624 2.98442 21.5506L2.64883 21.5371L2.61302 21.3544L2.57722 21.1717H2.87778C3.28047 21.1717 3.52791 21.1251 3.80217 20.9973C4.22639 20.7998 4.61841 20.316 4.6756 19.9194C4.71148 19.6704 4.71397 19.6676 4.83845 19.7355L4.94832 19.7955L4.97917 19.809C4.98471 20.4625 4.97246 20.6118 4.97723 18.7048C4.97917 17.5 4.97723 18.7048 4.97723 17.4756ZM3.10757 18.2725C3.03284 18.2979 2.66742 18.5133 2.29547 18.7511L1.61919 19.1837L1.68944 19.3083C1.7281 19.3768 1.7733 19.4999 1.78995 19.5817C1.82183 19.7388 1.81831 19.7413 1.91369 19.4932C1.99594 19.2792 2.14837 19.1557 2.90107 18.6933L3.66896 18.2216L3.45615 18.224C3.33913 18.2253 3.18226 18.2471 3.10757 18.2725ZM2.36554 19.2921C2.29514 19.3572 2.28487 19.7466 2.35193 19.8085C2.41367 19.8656 2.54871 19.8592 2.61713 19.796C2.7029 19.7167 2.69637 19.3692 2.60766 19.295C2.52344 19.2245 2.43979 19.2235 2.36554 19.2921Z" fill="#138934"/>
</svg>
