<svg width="29" height="29" viewBox="0 0 29 29" fill="none" xmlns="http://www.w3.org/2000/svg">
<path d="M10.7836 0.386754C9.913 0.365937 9.04707 0.519424 8.2367 0.838189C7.42634 1.15695 6.6879 1.63456 6.06483 2.24291C5.44176 2.85126 4.94663 3.57807 4.60859 4.38058C4.27054 5.1831 4.0964 6.04511 4.0964 6.91592C4.0964 7.78673 4.27054 8.64874 4.60859 9.45126C4.94663 10.2538 5.44176 10.9806 6.06483 11.5889C6.6879 12.1973 7.42634 12.6749 8.2367 12.9936C9.04707 13.3124 9.913 13.4659 10.7836 13.4451C11.6541 13.4659 12.5201 13.3124 13.3304 12.9936C14.1408 12.6749 14.8792 12.1973 15.5023 11.5889C16.1254 10.9806 16.6205 10.2538 16.9585 9.45126C17.2966 8.64874 17.4707 7.78673 17.4707 6.91592C17.4707 6.04511 17.2966 5.1831 16.9585 4.38058C16.6205 3.57807 16.1254 2.85126 15.5023 2.24291C14.8792 1.63456 14.1408 1.15695 13.3304 0.838189C12.5201 0.519424 11.6541 0.365937 10.7836 0.386754ZM7.05048 17.1744C5.31784 17.1744 3.65618 17.8627 2.43102 19.0879C1.20586 20.313 0.517578 21.9747 0.517578 23.7073L0.517578 28.3681H21.0495V23.7073C21.0495 21.9747 20.3613 20.313 19.1361 19.0879C17.9109 17.8627 16.2493 17.1744 14.5166 17.1744H7.05048ZM23.8494 19.0522H22.9161V28.3849H28.5157V23.7185C28.5157 22.4809 28.0241 21.294 27.149 20.4189C26.2739 19.5438 25.087 19.0522 23.8494 19.0522Z" fill="#23588E"/>
<path d="M20.9828 7.85278C19.7452 7.85278 18.5583 8.34442 17.6832 9.21953C16.8081 10.0946 16.3165 11.2815 16.3165 12.5191C16.3165 13.7567 16.8081 14.9436 17.6832 15.8188C18.5583 16.6939 19.7452 17.1855 20.9828 17.1855C22.2204 17.1855 23.4073 16.6939 24.2824 15.8188C25.1575 14.9436 25.6492 13.7567 25.6492 12.5191C25.6492 11.2815 25.1575 10.0946 24.2824 9.21953C23.4073 8.34442 22.2204 7.85278 20.9828 7.85278Z" fill="#23588E"/>
</svg>
