<svg width="28" height="23" viewBox="0 0 28 23" fill="none" xmlns="http://www.w3.org/2000/svg">
<path d="M4.73759 23C3.55256 23 2.41478 22.5832 1.50799 21.8117C-0.502587 20.0973 -0.502587 17.3088 1.50753 15.5955L17.1851 1.44575C19.6311 -0.636582 23.378 -0.449473 26.1123 1.87752C27.3376 2.92072 28.0251 4.42465 27.9993 6.00543C27.9735 7.56953 27.2546 9.06638 26.0258 10.1126L14.1773 20.8335C13.8475 21.1338 13.2945 21.1476 12.9425 20.8658C12.5913 20.5837 12.5742 20.1129 12.9053 19.8137L24.7718 9.0764C25.7 8.28601 26.2325 7.16482 26.2521 5.98462C26.2717 4.8037 25.7699 3.6903 24.877 2.92961C23.1997 1.50105 20.4689 0.752979 18.4386 2.48263L2.76152 16.6324C1.41356 17.781 1.414 19.6258 2.74405 20.7592C3.36777 21.2897 4.10814 21.5481 4.89656 21.5076C5.67668 21.4671 6.47864 21.1271 7.1548 20.5509L19.6288 9.26641C20.0809 8.88143 20.9895 7.93771 20.0648 7.14992C19.541 6.70405 19.1733 6.73152 19.0523 6.74006C18.7068 6.76605 18.3032 6.96912 17.8843 7.32627L8.49533 15.8134C8.1638 16.113 7.61038 16.1275 7.26048 15.8449C6.90886 15.5635 6.8927 15.092 7.22335 14.7936L16.6294 6.29048C17.3689 5.65899 18.125 5.3167 18.8946 5.25804C19.4952 5.21272 20.3885 5.32152 21.2996 6.09817C22.652 7.24977 22.4838 8.93897 20.8825 10.3029L8.40844 21.5867C7.41254 22.4361 6.21001 22.9295 5.00357 22.9925C4.9149 22.9977 4.82623 23 4.73756 23L4.73759 23Z" fill="#006437"/>
</svg>
