<svg width="27" height="29" viewBox="0 0 27 29" fill="none" xmlns="http://www.w3.org/2000/svg">
<path d="M13.3104 14.3849C17.3481 14.3849 20.6205 11.1651 20.6205 7.19243C20.6205 3.21974 17.3481 0 13.3104 0C9.27267 0 6.00026 3.21974 6.00026 7.19243C6.00026 11.1651 9.27267 14.3849 13.3104 14.3849ZM18.7815 16.2167L16.0517 26.9716L14.2241 19.3297L16.0517 16.183H10.5691L12.3966 19.3297L10.5691 26.9716L7.83921 16.2167C3.76725 16.4077 0.517675 19.6837 0.517675 23.735V26.0726C0.517675 26.7915 0.51744 28.2378 0.517701 28.7697C1.5177 28.7697 2.47618 28.7697 3.25897 28.7697H23.3618C24.1445 28.7697 25.6239 28.7697 26.103 28.7697C26.1031 28.1204 26.1031 26.7915 26.1031 26.0726V23.735C26.1031 19.6837 22.8535 16.4077 18.7815 16.2167Z" fill="#23588E"/>
</svg>
