<svg width="17" height="27" viewBox="0 0 17 27" fill="none" xmlns="http://www.w3.org/2000/svg">
<path d="M7.7814 18.3201C7.16198 18.3201 6.6396 18.1266 6.21426 17.7397C5.78893 17.3528 5.60155 16.8976 5.65214 16.3741C5.72957 15.4182 5.98766 14.5875 6.42642 13.8819C6.86517 13.1764 7.56202 12.4481 8.51696 11.697C9.57514 10.8777 10.3819 10.1662 10.9373 9.56262C11.4928 8.95903 11.77 8.27078 11.7689 7.49787C11.7689 6.56472 11.4143 5.7909 10.7051 5.17639C9.99583 4.56188 9.00837 4.25462 7.74268 4.25462C6.91679 4.25462 6.21323 4.40848 5.63201 4.71619C5.05079 5.0239 4.58003 5.40489 4.21973 5.85917C3.8584 6.31437 3.41345 6.62162 2.88488 6.78094C2.35631 6.94026 1.84632 6.92888 1.35491 6.7468C0.761298 6.5192 0.355061 6.14367 0.1362 5.6202C-0.0826623 5.09673 -0.0377538 4.6074 0.270924 4.1522C1.01939 3.12802 2.02595 2.27454 3.2906 1.59175C4.55525 0.908962 6.03928 0.567568 7.74268 0.567568C10.4526 0.567568 12.537 1.23306 13.9957 2.56404C15.4545 3.89502 16.1833 5.49411 16.1823 7.36131C16.1823 8.49929 15.9051 9.47249 15.3507 10.2809C14.7963 11.0893 13.925 12.0052 12.7368 13.0284C11.8593 13.7568 11.2398 14.3485 10.8785 14.8037C10.5172 15.2589 10.272 15.7824 10.1429 16.3741C10.0397 16.9431 9.7687 17.4097 9.32995 17.7738C8.89119 18.138 8.37501 18.3201 7.7814 18.3201ZM7.74268 26.5135C6.89098 26.5135 6.16161 26.2459 5.55458 25.7106C4.94755 25.1752 4.64455 24.5325 4.64558 23.7824C4.64558 23.0313 4.9491 22.3881 5.55613 21.8528C6.16316 21.3175 6.89201 21.0503 7.74268 21.0512C8.59439 21.0512 9.32376 21.3189 9.93079 21.8542C10.5378 22.3895 10.8408 23.0322 10.8398 23.7824C10.8398 24.5334 10.5363 25.1766 9.92924 25.7119C9.32221 26.2472 8.59336 26.5144 7.74268 26.5135Z" fill="#23588E"/>
</svg>
