<svg width="26" height="29" viewBox="0 0 26 29" fill="none" xmlns="http://www.w3.org/2000/svg">
<path d="M12.214 6.33997C11.299 6.09224 11.0047 5.83612 11.0047 5.43724C11.0047 4.97957 11.4118 4.66047 12.093 4.66047C12.6654 4.66047 12.9516 4.8872 13.0564 5.24829C13.1048 5.41624 13.2378 5.54221 13.4071 5.54221H13.528C13.794 5.54221 13.9835 5.26929 13.8908 5.00896C13.7215 4.51351 13.3265 4.10203 12.6977 3.94248V3.65276C12.6977 3.30427 12.4276 3.02295 12.093 3.02295C11.7585 3.02295 11.4884 3.30427 11.4884 3.65276V3.92988C10.7064 4.10623 10.0776 4.63527 10.0776 5.44564C10.0776 6.41555 10.8475 6.89841 11.9721 7.17972C12.9798 7.43165 13.1814 7.80114 13.1814 8.19163C13.1814 8.48134 12.9839 8.9432 12.093 8.9432C11.428 8.9432 11.0853 8.69548 10.9523 8.34278C10.8919 8.17903 10.7548 8.06146 10.5895 8.06146H10.4767C10.2066 8.06146 10.0172 8.34698 10.1179 8.6073C10.3477 9.19093 10.8838 9.53523 11.4884 9.66959V9.95091C11.4884 10.2994 11.7585 10.5807 12.093 10.5807C12.4276 10.5807 12.6977 10.2994 12.6977 9.95091V9.67799C13.4837 9.52263 14.1084 9.04817 14.1084 8.18743C14.1084 6.99498 13.129 6.5877 12.214 6.33997Z" fill="#20388C"/>
<path fill-rule="evenodd" clip-rule="evenodd" d="M15.3825 2.06461H8.92428C8.71948 3.0562 8.2253 3.96635 7.5031 4.68205C6.78089 5.39775 5.86247 5.88747 4.86187 6.09043C4.86147 6.38864 4.86147 6.68685 4.86187 6.98506C5.86247 7.18801 6.78089 7.67774 7.5031 8.39344C8.2253 9.10914 8.71948 10.0193 8.92428 11.0109H15.3825C15.5873 10.0193 16.0815 9.10914 16.8037 8.39344C17.5259 7.67774 18.4443 7.18801 19.4449 6.98506C19.4452 6.68685 19.4452 6.38864 19.4449 6.09043C18.4443 5.88747 17.5259 5.39775 16.8037 4.68205C16.0815 3.96635 15.5873 3.0562 15.3825 2.06461ZM16.2227 0.00421782C15.8408 8.87715e-05 15.4353 8.87423e-05 15.0033 8.87423e-05H9.30344C8.87289 8.87423e-05 8.46596 8.87715e-05 8.08541 0.00421782C8.00956 -0.00255304 7.93319 -0.0011686 7.85764 0.00834689C7.22987 0.0193577 6.67294 0.0455082 6.18962 0.110197C5.31741 0.22581 4.52993 0.481811 3.898 1.10805C3.26468 1.73566 3.00635 2.51605 2.88969 3.37902C2.82441 3.85937 2.79802 4.41129 2.78691 5.0334C2.7774 5.10781 2.776 5.18303 2.78274 5.25774C2.77858 5.63624 2.77858 6.03951 2.77858 6.46617V6.60931C2.77858 7.03598 2.77858 7.43925 2.78274 7.81775C2.77601 7.89246 2.77741 7.96768 2.78691 8.04209C2.79802 8.66558 2.82441 9.21612 2.88969 9.69509C3.00635 10.5594 3.26468 11.3398 3.898 11.9661C4.52993 12.5937 5.31741 12.8497 6.18962 12.9653C6.67294 13.03 7.22987 13.0561 7.85764 13.0671C7.93318 13.0768 8.00956 13.0782 8.08541 13.0713C8.46596 13.0754 8.87289 13.0754 9.30344 13.0754H15.0033C15.4339 13.0754 15.8408 13.0754 16.2227 13.0713C16.2981 13.0781 16.374 13.0767 16.4491 13.0671C17.0783 13.0561 17.6352 13.03 18.1171 12.9653C18.9893 12.8497 19.7768 12.5937 20.4088 11.9661C21.0421 11.3398 21.3004 10.5594 21.4171 9.69509C21.4829 9.14646 21.5172 8.59458 21.5198 8.04209C21.5293 7.96767 21.5307 7.89246 21.524 7.81775C21.5282 7.43925 21.5282 7.03598 21.5282 6.60931V6.46617C21.5282 6.03951 21.5282 5.63624 21.524 5.25774C21.5309 5.18303 21.5295 5.1078 21.5198 5.0334C21.517 4.48092 21.4826 3.92905 21.4171 3.3804C21.3004 2.51605 21.0421 1.73566 20.4102 1.10943C19.7768 0.481811 18.9893 0.22581 18.1185 0.110197C17.5644 0.0451286 17.0071 0.0111247 16.4491 0.00834689C16.374 -0.00111214 16.2981 -0.00249657 16.2227 0.00421782ZM17.5616 2.12517C17.7189 2.53694 17.9626 2.91088 18.2768 3.2222C18.5909 3.53352 18.9683 3.7751 19.3838 3.93094C19.375 3.83898 19.3644 3.7472 19.3518 3.65567C19.2671 3.0198 19.1171 2.74728 18.9352 2.56836C18.7546 2.38943 18.481 2.24216 17.8408 2.15545C17.7484 2.1435 17.6558 2.1334 17.563 2.12517H17.5616ZM19.3838 9.14455C18.9683 9.30039 18.5909 9.54197 18.2768 9.85329C17.9626 10.1646 17.7189 10.5386 17.5616 10.9503C17.6588 10.9421 17.7519 10.931 17.8394 10.92C18.481 10.8333 18.756 10.6861 18.9366 10.5071C19.1171 10.3282 19.2671 10.0557 19.3532 9.41982C19.3643 9.33311 19.3754 9.24089 19.3838 9.14455ZM6.74516 10.9503C6.58791 10.5386 6.34412 10.1646 6.02998 9.85329C5.71583 9.54197 5.33849 9.30039 4.92298 9.14455C4.9327 9.24089 4.94242 9.33311 4.95492 9.41982C5.04103 10.0557 5.18964 10.3282 5.37158 10.5071C5.55213 10.6861 5.82574 10.8333 6.466 10.92C6.55489 10.931 6.64794 10.9421 6.74516 10.9503ZM4.92298 3.93094C5.33849 3.7751 5.71583 3.53352 6.02998 3.2222C6.34412 2.91088 6.58791 2.53694 6.74516 2.12517C6.64794 2.13343 6.55489 2.14444 6.46739 2.15683C5.82574 2.24216 5.55074 2.38943 5.37019 2.56973C5.18964 2.74866 5.04103 3.0198 4.95353 3.65429L4.92298 3.93094ZM7.54792 16.7888C10.1395 16.2919 12.9131 16.4034 15.1589 17.7302C15.4728 17.916 15.77 18.1486 16.0269 18.4349C16.5491 19.0171 16.8186 19.7383 16.8311 20.4623C17.0963 20.293 17.363 20.1044 17.6324 19.9021L20.1435 18.0234C20.7722 17.5655 21.532 17.3186 22.3122 17.3186C23.0924 17.3186 23.8522 17.5655 24.4809 18.0234C25.642 18.8905 26.1059 20.4499 25.2739 21.7712C24.6837 22.7085 23.7934 24.0064 22.8893 24.8377C21.9726 25.6772 20.6713 26.3847 19.6866 26.8554C18.4894 27.428 17.1977 27.7445 15.9408 27.9455C13.3714 28.3584 10.6992 28.2951 8.16041 27.7762C6.85116 27.5092 5.51801 27.3741 4.18133 27.3729H1.0425C0.766242 27.3729 0.501296 27.2642 0.305949 27.0706C0.110603 26.877 0.000858716 26.6144 0.000858716 26.3407C0.000858716 26.0669 0.110603 25.8043 0.305949 25.6107C0.501296 25.4171 0.766242 25.3084 1.0425 25.3084H4.18133C5.6563 25.3084 7.14654 25.4612 8.58123 25.7543C10.8953 26.2249 13.2762 26.2766 15.6089 25.9071C16.7588 25.7227 17.8338 25.4488 18.781 24.996C19.7296 24.5418 20.7963 23.9444 21.4726 23.3237C22.1573 22.6947 22.9226 21.606 23.5073 20.6784C23.6837 20.3976 23.6587 19.9943 23.2268 19.6709C22.7129 19.2855 21.9115 19.2855 21.399 19.6709L18.8893 21.5496C17.8866 22.2997 16.6533 23.1021 15.1242 23.3443C14.964 23.3695 14.8033 23.3915 14.6422 23.4104C13.6691 23.5217 12.6868 23.5309 11.7117 23.4379C11.5731 23.4284 11.4378 23.3916 11.3138 23.3295C11.1898 23.2674 11.0796 23.1813 10.9896 23.0764C10.8997 22.9715 10.8318 22.8497 10.7901 22.7184C10.7483 22.5871 10.7335 22.4488 10.7464 22.3118C10.7594 22.1747 10.7999 22.0415 10.8656 21.9202C10.9313 21.7989 11.0208 21.6918 11.1288 21.6052C11.2369 21.5187 11.3613 21.4545 11.4948 21.4163C11.6283 21.3781 11.7682 21.3668 11.9062 21.383C12.6766 21.4572 13.4526 21.4558 14.2228 21.3789L14.2644 21.3748C14.394 21.2951 14.5041 21.1879 14.5869 21.0609C14.6696 20.9339 14.7228 20.7903 14.7427 20.6405C14.7627 20.4907 14.7488 20.3383 14.7021 20.1944C14.6554 20.0506 14.5771 19.9187 14.4728 19.8085C14.3621 19.6878 14.2333 19.5847 14.0908 19.5029C12.4506 18.5326 10.259 18.3716 7.94375 18.8148C5.68234 19.2656 3.53852 20.1721 1.64527 21.478C1.53365 21.5565 1.40753 21.6123 1.27411 21.6425C1.1407 21.6726 1.00259 21.6764 0.867695 21.6537C0.732795 21.6309 0.603737 21.5821 0.487891 21.5099C0.372044 21.4377 0.271678 21.3436 0.192521 21.233C0.113365 21.1224 0.0569693 20.9974 0.0265541 20.8652C-0.00386116 20.733 -0.00770031 20.5961 0.0152559 20.4624C0.0382121 20.3288 0.0875143 20.2009 0.160347 20.0861C0.23318 19.9713 0.328117 19.8718 0.439738 19.7934C2.57531 18.3179 4.99517 17.295 7.54792 16.7888Z" fill="#20388C"/>
</svg>
