<svg width="25" height="27" viewBox="0 0 25 27" fill="none" xmlns="http://www.w3.org/2000/svg">
<path d="M9.59094 24.0134C9.71673 25.5566 11.4333 26.7499 13.2833 26.3571L13.7884 26.2481C14.6844 26.0567 15.4798 25.4955 15.7469 24.6555C16.1726 23.3087 16.7783 20.5112 15.8668 17.212C16.1518 17.2456 16.4377 17.2737 16.7242 17.2962C18.104 17.4035 19.954 17.415 21.5932 16.9496C22.5956 16.6641 23.5168 15.8257 23.9154 14.8486C24.2715 13.9706 24.2251 12.9308 23.4626 11.9884C23.5748 11.792 23.6619 11.589 23.7296 11.3893C23.8786 10.9437 23.9483 10.4536 23.9483 9.97658C23.9483 9.49961 23.8786 9.00943 23.7296 8.56382C23.6542 8.34101 23.5555 8.11325 23.42 7.89705C23.7471 7.25833 23.6271 6.54535 23.4142 6.00236C23.1963 5.4662 22.8773 4.96393 22.4698 4.51532C22.5743 4.26446 22.6169 4.00039 22.6169 3.74788C22.6169 3.2445 22.4447 2.71636 22.1273 2.24269C21.4809 1.27554 20.1979 0.486636 18.3846 0.486636H11.6113C10.4405 0.486636 9.54062 0.620321 8.77428 0.846429C8.11533 1.05165 7.48562 1.31961 6.89712 1.64523L6.80422 1.69475C5.82887 2.20143 4.87094 2.69986 2.80219 2.88636C1.31982 3.02169 0 4.04165 0 5.43791V12.0396C0 13.4425 1.32562 14.403 2.62609 14.705C4.26909 15.0879 5.67212 16.0039 6.75197 17.0321C7.8357 18.067 8.52076 19.1447 8.76266 19.7372C9.14777 20.6862 9.4516 22.2772 9.59094 24.0118V24.0134Z" fill="#EB1111"/>
</svg>
