<svg width="41" height="33" viewBox="0 0 41 33" fill="none" xmlns="http://www.w3.org/2000/svg">
<rect x="-1" y="1" width="38" height="31" rx="3" transform="matrix(-1 0 0 1 38.3604 0)" fill="#234568" stroke="#234568" stroke-width="2"/>
<path d="M12.7207 6.36675L7.72712 11.3663L7.62212 11.485C7.43573 11.7257 7.34355 12.026 7.36288 12.3298C7.38221 12.6336 7.51172 12.9198 7.72712 13.1349L7.84586 13.2386C8.0865 13.425 8.38689 13.5172 8.69066 13.4979C8.99444 13.4785 9.28072 13.349 9.49579 13.1336L12.3607 10.2627V24.7489L12.3694 24.8951C12.405 25.1994 12.551 25.48 12.7798 25.6837C13.0086 25.8874 13.3043 25.9999 13.6106 26L13.7569 25.9912C14.0611 25.9554 14.3416 25.8091 14.5451 25.58C14.7486 25.351 14.8608 25.0552 14.8606 24.7489V10.2714L17.7267 13.1336L17.8454 13.2386C18.0967 13.4353 18.4136 13.5284 18.7313 13.4989C19.049 13.4694 19.3434 13.3195 19.5542 13.08C19.7649 12.8405 19.8761 12.5294 19.865 12.2106C19.8538 11.8917 19.7211 11.5892 19.4941 11.3651L14.4868 6.3655L14.3693 6.26176C14.1287 6.07537 13.8283 5.98319 13.5245 6.00252C13.2208 6.02185 12.9357 6.15136 12.7207 6.36675ZM26.1101 6.00428L25.9638 6.01303C25.6598 6.04885 25.3795 6.195 25.176 6.42378C24.9726 6.65255 24.8602 6.94803 24.8601 7.25417V21.7279L21.994 18.8656L21.8753 18.7606C21.6239 18.5663 21.308 18.475 20.9917 18.5052C20.6754 18.5355 20.3825 18.685 20.1726 18.9235C19.9626 19.1619 19.8513 19.4714 19.8614 19.7889C19.8714 20.1064 20.002 20.4083 20.2266 20.633L25.2314 25.6325L25.3489 25.7375C25.5895 25.9239 25.8899 26.0161 26.1937 25.9968C26.4974 25.9774 26.7837 25.8479 26.9988 25.6325L31.9936 20.633L32.0986 20.5142C32.285 20.2736 32.3772 19.9732 32.3578 19.6695C32.3385 19.3657 32.209 19.0794 31.9936 18.8644L31.8748 18.7606C31.6342 18.5743 31.3338 18.4821 31.03 18.5014C30.7263 18.5207 30.44 18.6502 30.2249 18.8656L27.36 21.7329V7.25417L27.3513 7.10918C27.3157 6.80492 27.1697 6.5243 26.9409 6.32061C26.7121 6.11693 26.4164 6.00436 26.1101 6.00428Z" fill="#FBFBFB"/>
</svg>
