<svg width="29" height="23" viewBox="0 0 29 23" fill="none" xmlns="http://www.w3.org/2000/svg">
<path d="M5.73515 23C4.55012 23 3.41234 22.5832 2.50555 21.8117C0.494972 20.0973 0.494972 17.3088 2.50509 15.5955L18.1826 1.44575C20.6287 -0.636582 24.3755 -0.449473 27.1099 1.87752C28.3351 2.92072 29.0226 4.42465 28.9969 6.00543C28.9711 7.56953 28.2521 9.06638 27.0234 10.1126L15.1748 20.8335C14.845 21.1338 14.292 21.1476 13.94 20.8658C13.5888 20.5837 13.5718 20.1129 13.9029 19.8137L25.7694 9.0764C26.6976 8.28601 27.23 7.16482 27.2496 5.98462C27.2693 4.8037 26.7674 3.6903 25.8746 2.92961C24.1973 1.50105 21.4664 0.752979 19.4362 2.48263L3.75908 16.6324C2.41112 17.781 2.41156 19.6258 3.74161 20.7592C4.36533 21.2897 5.1057 21.5481 5.89412 21.5076C6.67424 21.4671 7.4762 21.1271 8.15236 20.5509L20.6264 9.26641C21.0785 8.88143 21.987 7.93771 21.0623 7.14992C20.5386 6.70405 20.1708 6.73152 20.0499 6.74006C19.7043 6.76605 19.3007 6.96912 18.8819 7.32627L9.49289 15.8134C9.16136 16.113 8.60794 16.1275 8.25804 15.8449C7.90642 15.5635 7.89025 15.092 8.22091 14.7936L17.627 6.29048C18.3665 5.65899 19.1226 5.3167 19.8922 5.25804C20.4928 5.21272 21.386 5.32152 22.2972 6.09817C23.6495 7.24977 23.4814 8.93897 21.8801 10.3029L9.406 21.5867C8.4101 22.4361 7.20757 22.9295 6.00113 22.9926C5.91246 22.9977 5.82379 23 5.73512 23L5.73515 23Z" fill="#234568"/>
</svg>
