<svg width="27" height="27" viewBox="0 0 27 27" fill="none" xmlns="http://www.w3.org/2000/svg">
<path d="M10.4867 5.14418C12.5597 5.14418 14.2459 6.82158 14.2459 8.8836C14.2459 11.6882 10.4867 15.8282 10.4867 15.8282C10.4867 15.8282 6.72754 11.6882 6.72754 8.8836C6.72754 6.82158 8.41381 5.14418 10.4867 5.14418ZM9.66509 11.5546L13.1719 8.03422L12.4201 7.281L9.66509 10.0482L8.55344 8.93168L7.8016 9.68491L9.66509 11.5546Z" fill="#23588E"/>
<path d="M19.7836 17.412H18.5331L18.09 16.9847C19.9893 14.7687 20.9707 11.7455 20.4325 8.53241C19.6886 4.13216 16.0165 0.618291 11.5846 0.0801314C4.88921 -0.742937 -0.729808 4.89191 0.0774319 11.5873C0.615592 16.0192 4.12946 19.6913 8.52971 20.4352C11.7428 20.9734 14.766 19.992 16.982 18.0927L17.4093 18.5359V19.7863L24.1522 26.5133C24.8011 27.1622 25.8458 27.1622 26.4947 26.5133L26.5106 26.4975C27.1595 25.8485 27.1595 24.8038 26.5106 24.1549L19.7836 17.412ZM10.2866 17.412C6.34541 17.412 3.16394 14.2306 3.16394 10.2893C3.16394 6.34811 6.34541 3.16664 10.2866 3.16664C14.2279 3.16664 17.4093 6.34811 17.4093 10.2893C17.4093 14.2306 14.2279 17.412 10.2866 17.412Z" fill="#23588E"/>
</svg>
