<svg width="22" height="26" viewBox="0 0 22 26" fill="none" xmlns="http://www.w3.org/2000/svg">
<path d="M9.34546 2.42414C9.45493 0.877778 10.9488 -0.317967 12.5589 0.0756535L12.9985 0.184809C13.7783 0.376657 14.4705 0.938971 14.7029 1.78079C15.0734 3.13034 15.6006 5.93365 14.8073 9.23972C15.0554 9.20608 15.3041 9.17795 15.5534 9.15538C16.7543 9.04788 18.3644 9.0363 19.7909 9.50269C20.6633 9.78881 21.465 10.629 21.812 11.6081C22.1218 12.4879 22.0814 13.5299 21.4179 14.4742C21.5155 14.671 21.5913 14.8744 21.6503 15.0746C21.78 15.5211 21.8406 16.0123 21.8406 16.4903C21.8406 16.9682 21.78 17.4594 21.6503 17.906C21.5846 18.1293 21.4987 18.3575 21.3808 18.5741C21.6654 19.2142 21.561 19.9287 21.3757 20.4728C21.1861 21.0101 20.9085 21.5134 20.5539 21.9629C20.6448 22.2143 20.6819 22.4789 20.6819 22.732C20.6819 23.2364 20.532 23.7656 20.2557 24.2403C19.6932 25.2095 18.5766 26 16.9985 26H11.1038C10.0848 26 9.30167 25.866 8.63473 25.6395C8.06125 25.4338 7.51322 25.1653 7.00105 24.839L6.9202 24.7894C6.07136 24.2816 5.23768 23.7822 3.43727 23.5953C2.14716 23.4597 0.998535 22.4376 0.998535 21.0384V14.4229C0.998535 13.0172 2.15222 12.0546 3.284 11.7519C4.71389 11.3682 5.93494 10.4504 6.87473 9.42C7.81789 8.38302 8.41409 7.30305 8.62462 6.70931C8.95978 5.75834 9.2242 4.16401 9.34546 2.4258V2.42414Z" fill="#12722D"/>
</svg>
