<svg width="36" height="29" viewBox="0 0 36 29" fill="none" xmlns="http://www.w3.org/2000/svg">
<path d="M18.0176 0.386755C17.1272 0.365925 16.2415 0.519505 15.4127 0.838461C14.5838 1.15742 13.8286 1.63531 13.1913 2.24402C12.554 2.85274 12.0476 3.57998 11.7018 4.38298C11.3561 5.18598 11.178 6.04851 11.178 6.91984C11.178 7.79117 11.3561 8.6537 11.7018 9.4567C12.0476 10.2597 12.554 10.9869 13.1913 11.5957C13.8286 12.2044 14.5838 12.6823 15.4127 13.0012C16.2415 13.3202 17.1272 13.4738 18.0176 13.4529C18.908 13.4738 19.7937 13.3202 20.6225 13.0012C21.4513 12.6823 22.2066 12.2044 22.8439 11.5957C23.4812 10.9869 23.9876 10.2597 24.3333 9.4567C24.6791 8.6537 24.8572 7.79117 24.8572 6.91984C24.8572 6.04851 24.6791 5.18598 24.3333 4.38298C23.9876 3.57998 23.4812 2.85274 22.8439 2.24402C22.2066 1.63531 21.4513 1.15742 20.6225 0.838461C19.7937 0.519505 18.908 0.365925 18.0176 0.386755ZM14.1994 17.1845C12.4273 17.1845 10.7277 17.8732 9.47464 19.0991C8.22155 20.325 7.51758 21.9877 7.51758 23.7213V28.3849H28.5176V23.7213C28.5176 21.9877 27.8136 20.325 26.5605 19.0991C25.3074 17.8732 23.6079 17.1845 21.8358 17.1845H14.1994Z" fill="#23588E"/>
<path d="M26.0363 10.1052C26.8176 9.32384 27.8773 8.88489 28.9823 8.88489C30.0873 8.88489 31.147 9.32384 31.9284 10.1052C32.7097 10.8865 33.1487 11.9463 33.1487 13.0512C33.1487 14.1562 32.7097 15.216 31.9284 15.9973C31.147 16.7786 30.0873 17.2176 28.9823 17.2176C27.8773 17.2176 26.8176 16.7786 26.0363 15.9973C25.2549 15.216 24.816 14.1562 24.816 13.0512C24.816 11.9463 25.2549 10.8865 26.0363 10.1052Z" stroke="#23588E"/>
<path d="M4.23788 10.1052C5.01922 9.32384 6.07895 8.88489 7.18393 8.88489C8.28892 8.88489 9.34865 9.32384 10.13 10.1052C10.9113 10.8865 11.3503 11.9463 11.3503 13.0512C11.3503 14.1562 10.9113 15.216 10.13 15.9973C9.34865 16.7786 8.28892 17.2176 7.18393 17.2176C6.07895 17.2176 5.01922 16.7786 4.23788 15.9973C3.45653 15.216 3.01758 14.1562 3.01758 13.0512C3.01758 11.9463 3.45653 10.8865 4.23788 10.1052Z" stroke="#23588E"/>
<path d="M6.01758 18.8849H5.51758C4.3241 18.8849 3.17951 19.359 2.3356 20.2029C1.49168 21.0468 1.01758 22.1914 1.01758 23.3849V27.8849H6.01758V23.3849V18.8849Z" stroke="#23588E"/>
<path d="M30.0176 18.8849H30.5176C31.7111 18.8849 32.8556 19.359 33.6996 20.2029C34.5435 21.0468 35.0176 22.1914 35.0176 23.3849V27.8849H30.0176V18.8849Z" stroke="#23588E"/>
</svg>
