<svg width="25" height="20" viewBox="0 0 25 20" fill="none" xmlns="http://www.w3.org/2000/svg">
<path d="M5.3603 0.366749L0.366765 5.3663L0.26177 5.48504C0.0753739 5.72567 -0.0168063 6.02605 0.00252473 6.32981C0.0218558 6.63357 0.151369 6.91983 0.366765 7.1349L0.48551 7.23864C0.726152 7.42502 1.02654 7.5172 1.33031 7.49787C1.63409 7.47854 1.92037 7.34903 2.13544 7.13365L5.00032 4.26265V18.7489L5.00907 18.8951C5.0446 19.1994 5.19064 19.48 5.41946 19.6837C5.64827 19.8874 5.94392 19.9999 6.25026 20L6.39651 19.9912C6.70077 19.9554 6.98128 19.8091 7.18475 19.58C7.38822 19.351 7.50048 19.0552 7.50021 18.7489V4.2714L10.3663 7.13365L10.4851 7.23864C10.7363 7.43527 11.0533 7.52837 11.371 7.49888C11.6887 7.46939 11.9831 7.31953 12.1938 7.08001C12.4046 6.84049 12.5158 6.52945 12.5046 6.2106C12.4935 5.89175 12.3608 5.58924 12.1338 5.36505L7.12648 0.365498L7.00898 0.261758C6.76834 0.0753707 6.46795 -0.0168055 6.16418 0.0025246C5.86041 0.0218547 5.57538 0.151363 5.3603 0.366749ZM18.7497 0.0042804L18.6035 0.0130302C18.2994 0.0488485 18.0191 0.195005 17.8157 0.423778C17.6122 0.652551 17.4998 0.94803 17.4998 1.25417V15.7279L14.6337 12.8656L14.5149 12.7606C14.2636 12.5663 13.9476 12.475 13.6314 12.5052C13.3151 12.5355 13.0222 12.685 12.8122 12.9235C12.6023 13.1619 12.491 13.4714 12.501 13.7889C12.511 14.1064 12.6416 14.4083 12.8662 14.633L17.871 19.6325L17.9885 19.7375C18.2292 19.9239 18.5295 20.0161 18.8333 19.9968C19.1371 19.9774 19.4234 19.8479 19.6384 19.6325L24.6332 14.633L24.7382 14.5142C24.9246 14.2736 25.0168 13.9732 24.9975 13.6695C24.9781 13.3657 24.8486 13.0794 24.6332 12.8644L24.5145 12.7606C24.2738 12.5743 23.9735 12.4821 23.6697 12.5014C23.3659 12.5207 23.0796 12.6502 22.8646 12.8656L19.9997 15.7329V1.25417L19.9909 1.10918C19.9554 0.804919 19.8094 0.5243 19.5805 0.320613C19.3517 0.116927 19.0561 0.00435674 18.7497 0.0042804Z" fill="#006437"/>
</svg>
